<svg width="52" height="52" viewBox="0 0 52 52" fill="none" xmlns="http://www.w3.org/2000/svg">
<path d="M26 0C16.1201 0 8.11328 8.00903 8.11328 17.889C8.11328 25.4203 18.5101 42.7745 23.4501 50.596C24.0037 51.4704 24.9678 51.9999 26.0018 51.9999C27.0363 51.9978 27.9984 51.4687 28.5503 50.5943C33.4919 42.7711 43.8871 25.4202 43.8871 17.8889C43.887 8.00903 35.8802 0 26 0ZM26 28.8102C20.4126 28.8102 15.8829 24.2811 15.8829 18.6929C15.8829 13.1054 20.4125 8.5758 26 8.5758C31.5876 8.5758 36.1172 13.1053 36.1172 18.6929C36.1172 24.2811 31.5877 28.8102 26 28.8102Z" fill="#F44336"/>
</svg>
