<svg width="288" height="288" viewBox="0 0 288 288" fill="none" xmlns="http://www.w3.org/2000/svg">
<path d="M193.48 287.966H99.2992C69.3586 287.966 45.0002 263.607 45.0002 233.667C45.0002 203.726 69.3586 179.367 99.2992 179.367H130.606C139.841 179.367 147.353 171.855 147.353 162.62C147.353 153.386 139.841 145.873 130.606 145.873H97.8717V129H130.606C149.145 129 164.226 144.082 164.226 162.62C164.226 181.159 149.145 196.24 130.606 196.24H99.2992C78.6624 196.24 61.8732 213.029 61.8732 233.666C61.8732 254.303 78.6618 271.093 99.2992 271.093H193.48V287.966Z" fill="#0B799D"/>
<path d="M56.763 0L45.5132 56.7602L56.7624 137.029L96.8971 96.8943C107.168 86.6231 113.521 72.4329 113.521 56.7596C113.522 25.4118 88.1102 0 56.763 0V0Z" fill="#E50058"/>
<path d="M0.00334167 56.759C0.00334167 72.4324 6.35658 86.6225 16.6277 96.8937L56.7624 137.028V0C25.4157 0 0.00334167 25.4118 0.00334167 56.759V56.759Z" fill="#FF415B"/>
<path d="M56.763 16.873L45.5137 56.7602L56.763 96.6474C78.7563 96.6474 96.6501 78.7541 96.6501 56.7602C96.6501 34.7662 78.7563 16.873 56.763 16.873Z" fill="#FF415B"/>
<path d="M16.8758 56.7602C16.8758 78.7541 34.769 96.6474 56.7629 96.6474V16.873C34.769 16.873 16.8758 34.7662 16.8758 56.7602V56.7602Z" fill="#FF7C48"/>
<path d="M79.7766 56.7602C79.7766 44.07 69.4526 33.746 56.763 33.746L45.5137 56.7602L56.763 79.7744C69.4526 79.7744 79.7766 69.4504 79.7766 56.7602Z" fill="#E1EBF0"/>
<path d="M33.7488 56.7602C33.7488 69.4504 44.0728 79.7744 56.763 79.7744V33.746C44.0728 33.746 33.7488 44.07 33.7488 56.7602V56.7602Z" fill="#FFF5F5"/>
<path d="M242.972 179.367L231.723 233.684L242.972 288L274.79 256.183C283.288 247.683 287.969 236.383 287.969 224.365C287.969 199.553 267.784 179.367 242.972 179.367V179.367Z" fill="#E50058"/>
<path d="M197.975 224.364C197.975 236.383 202.655 247.683 211.154 256.182L242.972 287.999V179.367C218.161 179.367 197.975 199.553 197.975 224.364V224.364Z" fill="#FF415B"/>
</svg>
