<svg width="64" height="64" viewBox="0 0 64 64" fill="none" xmlns="http://www.w3.org/2000/svg">
<g clip-path="url(#clip0)">
<path d="M39.4666 0H24.5333C23.0667 0 21.8667 1.2 21.8667 2.66663V61.3332C21.8667 62.7999 23.0667 63.9999 24.5333 63.9999H39.4667C40.9333 63.9999 42.1333 62.7999 42.1333 61.3332V2.66663C42.1333 1.2 40.9333 0 39.4666 0Z" fill="#FF7058"/>
<path d="M17.6 0H2.66663C1.2 0 0 1.2 0 2.66663V61.3332C0 62.8 1.2 64 2.66663 64H17.6C19.0666 64 20.2666 62.8 20.2666 61.3334V2.66663C20.2666 1.2 19.0666 0 17.6 0Z" fill="#84DBFF"/>
<path d="M17.6001 2.66663H2.66675V26H17.6001V2.66663Z" fill="#F2F2F2"/>
<path d="M39.4668 2.66663H24.5334V26H39.4668V2.66663Z" fill="#F1543F"/>
<path d="M61.3334 0H46.4C44.9334 0 43.7334 1.2 43.7334 2.66663V61.3332C43.7334 62.7999 44.9334 63.9999 46.4 63.9999H61.3334C62.8 64 64 62.8 64 61.3334V2.66663C64 1.2 62.8 0 61.3334 0Z" fill="#FFD15C"/>
<path d="M61.3335 2.66663H46.4001V26H61.3335V2.66663Z" fill="#F8B64C"/>
<path d="M16.1333 5.86662H4.1333V9.2H16.1333V5.86662Z" fill="#CDD6E0"/>
<path d="M16.1333 12.6666H4.1333V16H16.1333V12.6666Z" fill="#CDD6E0"/>
<path d="M12.5333 19.4666H4.1333V22.8H12.5333V19.4666Z" fill="#CDD6E0"/>
<path d="M38 5.86662H26V9.2H38V5.86662Z" fill="#F2F2F2"/>
<path d="M38 12.6666H26V16H38V12.6666Z" fill="#F2F2F2"/>
<path d="M34.4 19.4666H26V22.8H34.4V19.4666Z" fill="#F2F2F2"/>
<path d="M59.8665 5.86662H47.8665V9.2H59.8665V5.86662Z" fill="#F2F2F2"/>
<path d="M59.8665 12.6666H47.8665V16H59.8665V12.6666Z" fill="#F2F2F2"/>
<path d="M56.2665 19.4666H47.8665V22.8H56.2665V19.4666Z" fill="#F2F2F2"/>
<path d="M10.1333 57.7334C13.447 57.7334 16.1333 55.0471 16.1333 51.7334C16.1333 48.4197 13.447 45.7334 10.1333 45.7334C6.81959 45.7334 4.1333 48.4197 4.1333 51.7334C4.1333 55.0471 6.81959 57.7334 10.1333 57.7334Z" fill="#F2F2F2"/>
<path d="M10.1335 56.2667C12.6372 56.2667 14.6668 54.2371 14.6668 51.7334C14.6668 49.2297 12.6372 47.2 10.1335 47.2C7.62976 47.2 5.6001 49.2297 5.6001 51.7334C5.6001 54.2371 7.62976 56.2667 10.1335 56.2667Z" fill="#40596B"/>
<path d="M32 57.7334C35.3137 57.7334 38 55.0471 38 51.7334C38 48.4197 35.3137 45.7334 32 45.7334C28.6863 45.7334 26 48.4197 26 51.7334C26 55.0471 28.6863 57.7334 32 57.7334Z" fill="#F2F2F2"/>
<path d="M31.9999 56.2667C34.5036 56.2667 36.5333 54.2371 36.5333 51.7334C36.5333 49.2297 34.5036 47.2 31.9999 47.2C29.4962 47.2 27.4666 49.2297 27.4666 51.7334C27.4666 54.2371 29.4962 56.2667 31.9999 56.2667Z" fill="#40596B"/>
<path d="M53.8667 57.7334C57.1804 57.7334 59.8667 55.0471 59.8667 51.7334C59.8667 48.4197 57.1804 45.7334 53.8667 45.7334C50.553 45.7334 47.8667 48.4197 47.8667 51.7334C47.8667 55.0471 50.553 57.7334 53.8667 57.7334Z" fill="#F2F2F2"/>
<path d="M53.8666 56.2667C56.3703 56.2667 58.4 54.2371 58.4 51.7334C58.4 49.2297 56.3703 47.2 53.8666 47.2C51.3629 47.2 49.3333 49.2297 49.3333 51.7334C49.3333 54.2371 51.3629 56.2667 53.8666 56.2667Z" fill="#40596B"/>
</g>
<defs>
<clipPath id="clip0">
<rect width="64" height="64" fill="white"/>
</clipPath>
</defs>
</svg>
