<svg width="75" height="75" viewBox="0 0 75 75" fill="none" xmlns="http://www.w3.org/2000/svg">
<g clip-path="url(#clip0)">
<path d="M28.9061 0H5.46856C2.45304 0 0 2.45304 0 5.46856V19.5311C0 22.5471 2.45304 25.0002 5.46856 25.0002H28.9061C31.9221 25.0002 34.3752 22.5471 34.3752 19.5311V5.46856C34.3752 2.45304 31.9221 0 28.9061 0Z" fill="#2196F3"/>
<path d="M28.9061 31.2498H5.46856C2.45304 31.2498 0 33.7029 0 36.7189V69.5314C0 72.547 2.45304 75 5.46856 75H28.9061C31.9221 75 34.3752 72.547 34.3752 69.5314V36.7189C34.3752 33.7029 31.9221 31.2498 28.9061 31.2498V31.2498Z" fill="#1976D2"/>
<path d="M69.5314 49.9998H46.0939C43.0778 49.9998 40.6248 52.4528 40.6248 55.4689V69.5314C40.6248 72.547 43.0778 75 46.0939 75H69.5314C72.5469 75 74.9999 72.547 74.9999 69.5314V55.4689C74.9999 52.4528 72.5469 49.9998 69.5314 49.9998V49.9998Z" fill="#2196F3"/>
<path d="M69.5314 0H46.0939C43.0778 0 40.6248 2.45304 40.6248 5.46856V38.2811C40.6248 41.2971 43.0778 43.7502 46.0939 43.7502H69.5314C72.5469 43.7502 74.9999 41.2971 74.9999 38.2811V5.46856C74.9999 2.45304 72.5469 0 69.5314 0V0Z" fill="#1976D2"/>
</g>
<defs>
<clipPath id="clip0">
<rect width="75" height="75" fill="white"/>
</clipPath>
</defs>
</svg>
