<svg width="59" height="59" viewBox="0 0 59 59" fill="none" xmlns="http://www.w3.org/2000/svg">
<g clip-path="url(#clip0)">
<path d="M58.8462 22.6321C58.46 21.4374 57.4003 20.5889 56.1467 20.4759L39.1177 18.9297L32.3839 3.16873C31.8874 2.01365 30.7567 1.26596 29.5003 1.26596C28.2439 1.26596 27.1132 2.01365 26.6167 3.17143L19.8829 18.9297L2.85122 20.4759C1.59981 20.5916 0.542868 21.4374 0.154393 22.6321C-0.234083 23.8268 0.124683 25.1372 1.07134 25.9632L13.9433 37.252L10.1476 53.9717C9.86989 55.2011 10.347 56.4718 11.3671 57.2092C11.9154 57.6053 12.5568 57.807 13.2037 57.807C13.7614 57.807 14.3146 57.6566 14.8111 57.3595L29.5003 48.5803L44.1841 57.3595C45.2586 58.0059 46.613 57.947 47.6308 57.2092C48.6513 56.4696 49.128 55.1984 48.8503 53.9717L45.0546 37.252L57.9266 25.9655C58.8732 25.1372 59.2347 23.8291 58.8462 22.6321V22.6321Z" fill="#FFC107"/>
</g>
<defs>
<clipPath id="clip0">
<rect width="59" height="59" fill="white"/>
</clipPath>
</defs>
</svg>
