<svg width="23" height="23" viewBox="0 0 23 23" fill="none" xmlns="http://www.w3.org/2000/svg">
<path d="M14.5352 0H5.10762C3.68907 0 2.51562 1.16741 2.51562 2.58596V20.414C2.51562 21.8326 3.68907 23 5.10762 23H17.9035C19.322 23 20.4952 21.8326 20.4952 20.414V6.252L14.5352 0Z" fill="#00ACEA"/>
<path d="M14.5642 0.0175476L20.5011 6.25776H16.5489C15.4516 6.25776 14.5642 5.37055 14.5642 4.27319V0.0175476Z" fill="#00EFD1"/>
<path d="M16.3099 18.3883H6.70124C6.38033 18.3883 6.11768 18.651 6.11768 18.972C6.11768 19.2932 6.38033 19.5559 6.70124 19.5559H16.3158C16.6368 19.5559 16.8995 19.2932 16.8995 18.972C16.8995 18.651 16.6368 18.3883 16.3099 18.3883V18.3883Z" fill="#083863"/>
<path d="M8.51689 12.1071L10.9219 9.52119V15.8956C10.9219 16.2168 11.1846 16.4794 11.5056 16.4794C11.8267 16.4794 12.0894 16.2168 12.0894 15.8956V9.5209L14.4944 12.1071C14.6111 12.2296 14.7629 12.2938 14.9205 12.2938C15.0607 12.2938 15.2065 12.2413 15.3176 12.1362C15.551 11.9144 15.5685 11.5466 15.3467 11.3131L11.9318 7.6412C11.8209 7.52455 11.6691 7.4545 11.5057 7.4545C11.3422 7.4545 11.1904 7.52455 11.0795 7.6412L7.66464 11.3131C7.44284 11.5466 7.46039 11.9203 7.6937 12.1362C7.92729 12.358 8.29495 12.3405 8.51689 12.1071V12.1071Z" fill="#083863"/>
</svg>
